<svg width="192" height="812" viewBox="0 0 192 812" fill="none" xmlns="http://www.w3.org/2000/svg">
<path fill-rule="evenodd" clip-rule="evenodd" d="M21.6631 -7.44566e-06L46.9366 9.47333C72.2101 19.6233 122.757 38.57 155.252 58.1933C187.746 77.14 202.188 96.7633 184.136 115.71C166.083 135.333 115.536 154.957 97.4836 173.903C79.4311 193.527 93.8731 212.473 108.315 232.097C122.757 251.043 137.199 270.667 122.757 290.29C108.315 309.237 64.9891 328.86 50.5471 347.807C36.1051 367.43 50.5471 386.377 72.2101 406C93.8731 425.623 122.757 444.57 115.536 464.193C108.315 483.14 64.9891 502.763 46.9366 521.71C28.884 541.333 36.105 560.957 39.7156 579.903C43.3261 599.527 43.3261 618.473 39.7155 638.097C36.105 657.043 28.884 676.667 36.105 696.29C43.3261 715.237 64.9891 734.86 75.8206 753.807C86.6521 773.43 86.6521 792.377 86.6521 802.527L86.6521 812L-4.97607e-06 812L-4.56198e-06 802.527C-4.11831e-06 792.377 -3.29012e-06 773.43 -2.43236e-06 753.807C-1.60417e-06 734.86 -7.46411e-07 715.237 8.17739e-08 696.29C9.39538e-07 676.667 1.7973e-06 657.043 2.62549e-06 638.097C3.48325e-06 618.473 4.31143e-06 599.527 5.1692e-06 579.903C5.99738e-06 560.957 6.85515e-06 541.333 7.71291e-06 521.71C8.54109e-06 502.763 9.39886e-06 483.14 1.0227e-05 464.193C1.10848e-05 444.57 1.1913e-05 425.623 1.27708e-05 406C1.36285e-05 386.377 1.44567e-05 367.43 1.53145e-05 347.807C1.61427e-05 328.86 1.70004e-05 309.237 1.78286e-05 290.29C1.86864e-05 270.667 1.95441e-05 251.043 2.03723e-05 232.097C2.12301e-05 212.473 2.20583e-05 193.527 2.2916e-05 173.903C2.37442e-05 154.957 2.4602e-05 135.333 2.54597e-05 115.71C2.62879e-05 96.7633 2.71457e-05 77.14 2.79739e-05 58.1933C2.88316e-05 38.57 2.96598e-05 19.6233 3.01035e-05 9.47332L3.05176e-05 -8.39259e-06L21.6631 -7.44566e-06Z" fill="white" fill-opacity="0.46"/>
</svg>
