<svg width="192" height="812" viewBox="0 0 192 812" fill="none" xmlns="http://www.w3.org/2000/svg">
<path fill-rule="evenodd" clip-rule="evenodd" d="M170.337 812L145.063 802.527C119.79 792.377 69.2428 773.43 36.7483 753.807C4.25373 734.86 -10.1883 715.237 7.86424 696.29C25.9168 676.667 76.4638 657.043 94.5164 638.097C112.569 618.473 98.1269 599.527 83.6848 579.903C69.2428 560.957 54.8008 541.333 69.2428 521.71C83.6849 502.763 127.011 483.14 141.453 464.193C155.895 444.57 141.453 425.623 119.79 406C98.1269 386.377 69.2428 367.43 76.4638 347.807C83.6849 328.86 127.011 309.237 145.063 290.29C163.116 270.667 155.895 251.043 152.284 232.097C148.674 212.473 148.674 193.527 152.284 173.903C155.895 154.957 163.116 135.333 155.895 115.71C148.674 96.7633 127.011 77.14 116.179 58.1933C105.348 38.57 105.348 19.6233 105.348 9.47333L105.348 4.6049e-06L192 8.39259e-06L192 9.47334C192 19.6233 192 38.57 192 58.1933C192 77.14 192 96.7633 192 115.71C192 135.333 192 154.957 192 173.903C192 193.527 192 212.473 192 232.097C192 251.043 192 270.667 192 290.29C192 309.237 192 328.86 192 347.807C192 367.43 192 386.377 192 406C192 425.623 192 444.57 192 464.193C192 483.14 192 502.763 192 521.71C192 541.333 192 560.957 192 579.903C192 599.527 192 618.473 192 638.097C192 657.043 192 676.667 192 696.29C192 715.237 192 734.86 192 753.807C192 773.43 192 792.377 192 802.527L192 812L170.337 812Z" fill="white" fill-opacity="0.46"/>
</svg>
